<?xml version="1.0" encoding="UTF-8" standalone="no"?>
<svg width="92px" height="19px" viewBox="0 0 92 19" version="1.1" xmlns="http://www.w3.org/2000/svg" xmlns:xlink="http://www.w3.org/1999/xlink">
    <!-- Generator: Sketch 42 (36781) - http://www.bohemiancoding.com/sketch -->
    <title>CSSocial</title>
    <desc>Created with Sketch.</desc>
    <defs></defs>
    <g id="Symbols" stroke="none" stroke-width="1" fill="none" fill-rule="evenodd">
        <g id="header-background" transform="translate(-134.000000, -20.000000)" fill="#FFFFFF">
            <path d="M144.289062,32.2226562 C144.230469,34.15625 143.210938,35.0117188 141.324219,35.0117188 C139.085938,35.0117188 138.277344,33.5585938 138.277344,29.9375 L138.277344,28.9882812 C138.277344,25.3554688 139.25,23.9140625 141.277344,23.9140625 C143.457031,23.9140625 144.253906,24.9101562 144.3125,26.8320312 L148.414062,26.8320312 C148.097656,23.3046875 145.730469,20.6914062 141.277344,20.6914062 C136.929688,20.6914062 134.09375,23.890625 134.09375,29.0117188 L134.09375,29.9375 C134.09375,35.0703125 136.765625,38.234375 141.324219,38.234375 C145.542969,38.234375 148.226562,35.7851562 148.378906,32.2226562 L144.289062,32.2226562 Z M159.125,33.4648438 C159.125,34.3671875 158.480469,35.140625 156.921875,35.140625 C155,35.140625 153.910156,34.4726562 153.910156,32.46875 L149.785156,32.46875 C149.785156,36.5117188 153.417969,38.234375 156.921875,38.234375 C160.730469,38.234375 163.238281,36.5117188 163.238281,33.4414062 C163.238281,30.5585938 161.152344,28.9648438 157.519531,27.8046875 C155.585938,27.1835938 154.390625,26.5507812 154.390625,25.53125 C154.390625,24.59375 155.210938,23.8085938 156.769531,23.8085938 C158.351562,23.8085938 159.136719,24.7226562 159.136719,26 L163.238281,26 C163.238281,22.7773438 160.578125,20.703125 156.863281,20.703125 C153.078125,20.703125 150.300781,22.5664062 150.300781,25.4960938 C150.300781,28.5664062 153.113281,29.9726562 156.101562,30.96875 C158.667969,31.8125 159.125,32.3984375 159.125,33.4648438 Z M175.132812,33.6875 C175.132812,35.3632812 173.832031,36.3945312 171.453125,36.3945312 C169.25,36.3945312 167.257812,35.3867188 167.257812,33.0546875 L164.996094,33.0546875 C164.996094,36.4648438 168.300781,38.234375 171.453125,38.234375 C175.050781,38.234375 177.394531,36.4414062 177.394531,33.6640625 C177.394531,31.0273438 175.660156,29.515625 171.792969,28.4257812 C168.980469,27.640625 167.808594,26.7734375 167.808594,25.3203125 C167.808594,23.7382812 168.921875,22.5546875 171.335938,22.5546875 C173.890625,22.5546875 175.097656,23.9492188 175.097656,25.8710938 L177.359375,25.8710938 C177.359375,23.1992188 175.191406,20.703125 171.335938,20.703125 C167.84375,20.703125 165.535156,22.6953125 165.535156,25.3554688 C165.535156,28.0039062 167.679688,29.421875 171.066406,30.3945312 C174.289062,31.3320312 175.132812,32.09375 175.132812,33.6875 Z M179.351562,31.859375 L179.351562,31.4726562 C179.351562,27.78125 181.589844,25.0859375 185,25.0859375 C188.46875,25.0859375 190.671875,27.78125 190.671875,31.4726562 L190.671875,31.859375 C190.671875,35.5625 188.457031,38.234375 185.023438,38.234375 C181.601562,38.234375 179.351562,35.5625 179.351562,31.859375 Z M180.757812,31.4726562 L180.757812,31.859375 C180.757812,34.6367188 182.269531,37.0507812 185.023438,37.0507812 C187.765625,37.0507812 189.277344,34.6367188 189.277344,31.859375 L189.277344,31.4726562 C189.277344,28.7421875 187.765625,26.28125 185,26.28125 C182.28125,26.28125 180.757812,28.7421875 180.757812,31.4726562 Z M198.253906,37.0507812 C195.335938,37.0507812 194.246094,34.625 194.246094,31.90625 L194.246094,31.4140625 C194.246094,28.7304688 195.347656,26.28125 198.242188,26.28125 C200.164062,26.28125 201.652344,27.546875 201.78125,29.5976562 L203.128906,29.5976562 C203,26.8320312 200.960938,25.0859375 198.242188,25.0859375 C194.703125,25.0859375 192.839844,27.8632812 192.839844,31.4140625 L192.839844,31.90625 C192.839844,35.46875 194.703125,38.234375 198.253906,38.234375 C200.832031,38.234375 203,36.4882812 203.128906,34.0859375 L201.78125,34.0859375 C201.652344,36.0078125 200.023438,37.0507812 198.253906,37.0507812 Z M207.5,25.3203125 L206.09375,25.3203125 L206.09375,38 L207.5,38 L207.5,25.3203125 Z M205.847656,21.6523438 C205.847656,22.1796875 206.210938,22.5898438 206.808594,22.5898438 C207.40625,22.5898438 207.78125,22.1796875 207.78125,21.6523438 C207.78125,21.125 207.40625,20.703125 206.808594,20.703125 C206.210938,20.703125 205.847656,21.125 205.847656,21.6523438 Z M220.8125,38 L219.3125,38 C219.160156,37.5664062 219.078125,36.8867188 219.042969,36.2304688 C218.199219,37.3203125 216.722656,38.234375 214.742188,38.234375 C212.269531,38.234375 210.652344,36.6992188 210.652344,34.6367188 C210.652344,32.1523438 212.855469,30.6289062 216.429688,30.6289062 L219.03125,30.6289062 L219.03125,29.1875 C219.03125,27.3710938 217.894531,26.2695312 215.75,26.2695312 C213.78125,26.2695312 212.363281,27.4179688 212.363281,28.8242188 L210.957031,28.8125 C210.957031,26.9140625 212.914062,25.0859375 215.820312,25.0859375 C218.515625,25.0859375 220.425781,26.4570312 220.425781,29.2109375 L220.425781,35.3515625 C220.425781,36.2304688 220.566406,37.2617188 220.8125,37.859375 L220.8125,38 Z M214.90625,36.9921875 C216.933594,36.9921875 218.410156,35.890625 219.03125,34.4960938 L219.03125,31.7070312 L216.628906,31.7070312 C213.757812,31.7070312 212.058594,32.7734375 212.058594,34.5195312 C212.058594,35.890625 213.160156,36.9921875 214.90625,36.9921875 Z M225.734375,20 L224.328125,20 L224.328125,38 L225.734375,38 L225.734375,20 Z" id="CSSocial"></path>
        </g>
    </g>
</svg>